<svg width="18" height="21" viewBox="0 0 18 21" fill="none" xmlns="http://www.w3.org/2000/svg">
<path fill-rule="evenodd" clip-rule="evenodd" d="M16 2.03418H15V0.0341797H13V2.03418H5V0.0341797H3V2.03418H2C0.89 2.03418 0 2.93418 0 4.03418V18.0342C0 19.1342 0.89 20.0342 2 20.0342H16C17.1 20.0342 18 19.1342 18 18.0342V4.03418C18 2.93418 17.1 2.03418 16 2.03418ZM16 18.0342H2V7.03418H16V18.0342ZM3.5 11.0342C3.5 9.65418 4.62 8.53418 6 8.53418C7.38 8.53418 8.5 9.65418 8.5 11.0342C8.5 12.4142 7.38 13.5342 6 13.5342C4.62 13.5342 3.5 12.4142 3.5 11.0342Z" fill="black"/>
</svg>
