<svg width="47" height="47" viewBox="0 0 47 47" fill="none" xmlns="http://www.w3.org/2000/svg">
<path d="M20.2918 34.076L36.4481 17.9198L33.2397 14.7114L20.2918 27.6593L13.7606 21.1281L10.5522 24.3364L20.2918 34.076ZM23.5002 46.451C20.33 46.451 17.3509 45.8491 14.5627 44.6452C11.7745 43.4428 9.34912 41.8104 7.28662 39.7479C5.22412 37.6854 3.59169 35.26 2.38933 32.4718C1.18544 29.6836 0.583496 26.7045 0.583496 23.5343C0.583496 20.3642 1.18544 17.385 2.38933 14.5968C3.59169 11.8086 5.22412 9.3833 7.28662 7.3208C9.34912 5.2583 11.7745 3.62511 14.5627 2.42122C17.3509 1.21886 20.33 0.617676 23.5002 0.617676C26.6703 0.617676 29.6495 1.21886 32.4377 2.42122C35.2259 3.62511 37.6512 5.2583 39.7137 7.3208C41.7762 9.3833 43.4086 11.8086 44.611 14.5968C45.8149 17.385 46.4168 20.3642 46.4168 23.5343C46.4168 26.7045 45.8149 29.6836 44.611 32.4718C43.4086 35.26 41.7762 37.6854 39.7137 39.7479C37.6512 41.8104 35.2259 43.4428 32.4377 44.6452C29.6495 45.8491 26.6703 46.451 23.5002 46.451Z" fill="#007BFF"/>
</svg>
