<svg width="20" height="21" viewBox="0 0 20 21" fill="none" xmlns="http://www.w3.org/2000/svg">
<path d="M6.4 15.0342L10 11.4342L13.6 15.0342L15 13.6342L11.4 10.0342L15 6.43418L13.6 5.03418L10 8.63418L6.4 5.03418L5 6.43418L8.6 10.0342L5 13.6342L6.4 15.0342ZM10 20.0342C8.61667 20.0342 7.31667 19.7715 6.1 19.2462C4.88333 18.7215 3.825 18.0092 2.925 17.1092C2.025 16.2092 1.31267 15.1508 0.788 13.9342C0.262667 12.7175 0 11.4175 0 10.0342C0 8.65085 0.262667 7.35085 0.788 6.13418C1.31267 4.91751 2.025 3.85918 2.925 2.95918C3.825 2.05918 4.88333 1.34651 6.1 0.82118C7.31667 0.296513 8.61667 0.0341797 10 0.0341797C11.3833 0.0341797 12.6833 0.296513 13.9 0.82118C15.1167 1.34651 16.175 2.05918 17.075 2.95918C17.975 3.85918 18.6873 4.91751 19.212 6.13418C19.7373 7.35085 20 8.65085 20 10.0342C20 11.4175 19.7373 12.7175 19.212 13.9342C18.6873 15.1508 17.975 16.2092 17.075 17.1092C16.175 18.0092 15.1167 18.7215 13.9 19.2462C12.6833 19.7715 11.3833 20.0342 10 20.0342ZM10 18.0342C12.2333 18.0342 14.125 17.2592 15.675 15.7092C17.225 14.1592 18 12.2675 18 10.0342C18 7.80085 17.225 5.90918 15.675 4.35918C14.125 2.80918 12.2333 2.03418 10 2.03418C7.76667 2.03418 5.875 2.80918 4.325 4.35918C2.775 5.90918 2 7.80085 2 10.0342C2 12.2675 2.775 14.1592 4.325 15.7092C5.875 17.2592 7.76667 18.0342 10 18.0342Z" fill="#919094"/>
</svg>
