<svg width="18" height="19" viewBox="0 0 18 19" fill="none" xmlns="http://www.w3.org/2000/svg">
<path fill-rule="evenodd" clip-rule="evenodd" d="M9 1.53418C4.8525 1.53418 1.5 4.88668 1.5 9.03418C1.5 13.1817 4.8525 16.5342 9 16.5342C13.1475 16.5342 16.5 13.1817 16.5 9.03418C16.5 4.88668 13.1475 1.53418 9 1.53418ZM9 15.0342C5.6925 15.0342 3 12.3417 3 9.03418C3 5.72668 5.6925 3.03418 9 3.03418C12.3075 3.03418 15 5.72668 15 9.03418C15 12.3417 12.3075 15.0342 9 15.0342ZM9 7.97668L11.6925 5.28418L12.75 6.34168L10.0575 9.03418L12.75 11.7267L11.6925 12.7842L9 10.0917L6.3075 12.7842L5.25 11.7267L7.9425 9.03418L5.25 6.34168L6.3075 5.28418L9 7.97668Z" fill="#1F1F1F"/>
</svg>
