<svg width="18" height="19" viewBox="0 0 18 19" fill="none" xmlns="http://www.w3.org/2000/svg">
<mask id="mask0_321_1975" style="mask-type:alpha" maskUnits="userSpaceOnUse" x="0" y="0" width="18" height="19">
<rect y="0.0341797" width="18" height="18" fill="#D9D9D9"/>
</mask>
<g mask="url(#mask0_321_1975)">
<path d="M3.75 14.2842H4.8L11.2687 7.81543L10.2188 6.76543L3.75 13.2342V14.2842ZM14.475 6.72793L11.2875 3.57793L12.3375 2.52793C12.625 2.24043 12.9783 2.09668 13.3973 2.09668C13.8158 2.09668 14.1687 2.24043 14.4562 2.52793L15.5062 3.57793C15.7937 3.86543 15.9437 4.21243 15.9562 4.61893C15.9688 5.02493 15.8313 5.37168 15.5438 5.65918L14.475 6.72793ZM13.3875 7.83418L5.4375 15.7842H2.25V12.5967L10.2 4.64668L13.3875 7.83418Z" fill="white"/>
</g>
</svg>
