<svg width="24" height="25" viewBox="0 0 24 25" fill="none" xmlns="http://www.w3.org/2000/svg">
<mask id="mask0_121_8164" style="mask-type:alpha" maskUnits="userSpaceOnUse" x="0" y="0" width="24" height="25">
<rect y="0.0341797" width="24" height="24" fill="#21005D"/>
</mask>
<g mask="url(#mask0_121_8164)">
<path d="M5 18.0605H6.4L15.025 8.18711L13.625 6.58448L5 16.4578V18.0605ZM19.3 6.52725L15.05 1.71935L16.45 0.11672C16.8333 -0.322096 17.3043 -0.541504 17.863 -0.541504C18.421 -0.541504 18.8917 -0.322096 19.275 0.11672L20.675 1.71935C21.0583 2.15817 21.2583 2.6878 21.275 3.30825C21.2917 3.92793 21.1083 4.45718 20.725 4.896L19.3 6.52725ZM17.85 8.21573L7.25 20.3499H3V15.4848L13.6 3.3506L17.85 8.21573Z" fill="#919094"/>
</g>
</svg>
