<svg width="4" height="18" viewBox="0 0 4 18" fill="none" xmlns="http://www.w3.org/2000/svg">
<path fill-rule="evenodd" clip-rule="evenodd" d="M2 4.83317C3.1 4.83317 4 3.89567 4 2.74984C4 1.604 3.1 0.666504 2 0.666504C0.9 0.666504 0 1.604 0 2.74984C0 3.89567 0.9 4.83317 2 4.83317ZM2 6.9165C0.9 6.9165 0 7.854 0 8.99984C0 10.1457 0.9 11.0832 2 11.0832C3.1 11.0832 4 10.1457 4 8.99984C4 7.854 3.1 6.9165 2 6.9165ZM0 15.2498C0 14.104 0.9 13.1665 2 13.1665C3.1 13.1665 4 14.104 4 15.2498C4 16.3957 3.1 17.3332 2 17.3332C0.9 17.3332 0 16.3957 0 15.2498Z" fill="black"/>
</svg>
