<svg width="20" height="24" viewBox="0 0 20 24" fill="none" xmlns="http://www.w3.org/2000/svg">
<path d="M10 23.4948L5.75 18.6297L7.2 16.9698L9 19.0876V14.3369H11V19.0876L12.8 16.9698L14.25 18.6297L10 23.4948ZM4.25 16.9126L0 12.0475L4.25 7.18233L5.65 8.8422L3.85 10.9027H8V13.1922H3.85L5.7 15.2527L4.25 16.9126ZM15.75 16.9126L14.3 15.2527L16.15 13.1922H12V10.9027H16.15L14.3 8.8422L15.75 7.18233L20 12.0475L15.75 16.9126ZM9 9.75799V5.00733L7.2 7.06786L5.75 5.46523L10 0.600098L14.25 5.46523L12.8 7.1251L11 5.00733V9.75799H9Z" fill="#919094"/>
</svg>
