<svg width="23" height="17" viewBox="0 0 23 17" fill="none" xmlns="http://www.w3.org/2000/svg">
<path d="M0.664062 16.2959V13.4959C0.664062 12.9292 0.810062 12.4082 1.10206 11.9329C1.3934 11.4582 1.78073 11.0959 2.26406 10.8459C3.2974 10.3292 4.3474 9.94157 5.41406 9.6829C6.48073 9.4249 7.56406 9.2959 8.66406 9.2959C9.76406 9.2959 10.8474 9.4249 11.9141 9.6829C12.9807 9.94157 14.0307 10.3292 15.0641 10.8459C15.5474 11.0959 15.9347 11.4582 16.2261 11.9329C16.5181 12.4082 16.6641 12.9292 16.6641 13.4959V16.2959H0.664062ZM18.6641 16.2959V13.2959C18.6641 12.5626 18.4601 11.8582 18.0521 11.1829C17.6434 10.5082 17.0641 9.92923 16.3141 9.4459C17.1641 9.5459 17.9641 9.71657 18.7141 9.9579C19.4641 10.1999 20.1641 10.4959 20.8141 10.8459C21.4141 11.1792 21.8724 11.5499 22.1891 11.9579C22.5057 12.3666 22.6641 12.8126 22.6641 13.2959V16.2959H18.6641ZM8.66406 8.2959C7.56406 8.2959 6.6224 7.90423 5.83906 7.1209C5.05573 6.33756 4.66406 5.3959 4.66406 4.2959C4.66406 3.1959 5.05573 2.25423 5.83906 1.4709C6.6224 0.687565 7.56406 0.295898 8.66406 0.295898C9.76406 0.295898 10.7057 0.687565 11.4891 1.4709C12.2724 2.25423 12.6641 3.1959 12.6641 4.2959C12.6641 5.3959 12.2724 6.33756 11.4891 7.1209C10.7057 7.90423 9.76406 8.2959 8.66406 8.2959ZM18.6641 4.2959C18.6641 5.3959 18.2724 6.33756 17.4891 7.1209C16.7057 7.90423 15.7641 8.2959 14.6641 8.2959C14.4807 8.2959 14.2474 8.27523 13.9641 8.2339C13.6807 8.1919 13.4474 8.1459 13.2641 8.0959C13.7141 7.56257 14.0597 6.9709 14.3011 6.3209C14.5431 5.6709 14.6641 4.9959 14.6641 4.2959C14.6641 3.5959 14.5431 2.9209 14.3011 2.2709C14.0597 1.6209 13.7141 1.02923 13.2641 0.495898C13.4974 0.412565 13.7307 0.358232 13.9641 0.332899C14.1974 0.308232 14.4307 0.295898 14.6641 0.295898C15.7641 0.295898 16.7057 0.687565 17.4891 1.4709C18.2724 2.25423 18.6641 3.1959 18.6641 4.2959ZM2.66406 14.2959H14.6641V13.4959C14.6641 13.3126 14.6184 13.1459 14.5271 12.9959C14.4351 12.8459 14.3141 12.7292 14.1641 12.6459C13.2641 12.1959 12.3557 11.8582 11.4391 11.6329C10.5224 11.4082 9.5974 11.2959 8.66406 11.2959C7.73073 11.2959 6.80573 11.4082 5.88906 11.6329C4.9724 11.8582 4.06406 12.1959 3.16406 12.6459C3.01406 12.7292 2.8934 12.8459 2.80206 12.9959C2.71006 13.1459 2.66406 13.3126 2.66406 13.4959V14.2959ZM8.66406 6.2959C9.21406 6.2959 9.68506 6.0999 10.0771 5.7079C10.4684 5.31656 10.6641 4.8459 10.6641 4.2959C10.6641 3.7459 10.4684 3.27523 10.0771 2.8839C9.68506 2.4919 9.21406 2.2959 8.66406 2.2959C8.11406 2.2959 7.6434 2.4919 7.25206 2.8839C6.86006 3.27523 6.66406 3.7459 6.66406 4.2959C6.66406 4.8459 6.86006 5.31656 7.25206 5.7079C7.6434 6.0999 8.11406 6.2959 8.66406 6.2959Z" fill="#1C1B1F"/>
</svg>
