<svg width="21" height="21" viewBox="0 0 21 21" fill="none" xmlns="http://www.w3.org/2000/svg">
<path d="M12.6641 13.8516C12.9474 13.8516 13.1934 13.7476 13.4021 13.5396C13.6101 13.3309 13.7141 13.0849 13.7141 12.8016C13.7141 12.5182 13.6101 12.2722 13.4021 12.0636C13.1934 11.8556 12.9474 11.7516 12.6641 11.7516C12.3807 11.7516 12.1351 11.8556 11.9271 12.0636C11.7184 12.2722 11.6141 12.5182 11.6141 12.8016C11.6141 13.0849 11.7184 13.3309 11.9271 13.5396C12.1351 13.7476 12.3807 13.8516 12.6641 13.8516ZM11.9141 10.6516H13.4141C13.4141 10.1682 13.4641 9.8139 13.5641 9.58856C13.6641 9.3639 13.8974 9.06823 14.2641 8.70156C14.7641 8.20156 15.0974 7.79723 15.2641 7.48856C15.4307 7.18056 15.5141 6.81823 15.5141 6.40156C15.5141 5.65156 15.2514 5.03923 14.7261 4.56456C14.2014 4.08923 13.5141 3.85156 12.6641 3.85156C11.9807 3.85156 11.3851 4.04323 10.8771 4.42656C10.3684 4.8099 10.0141 5.31823 9.81406 5.95156L11.1641 6.50156C11.3141 6.0849 11.5184 5.77223 11.7771 5.56356C12.0351 5.35556 12.3307 5.25156 12.6641 5.25156C13.0641 5.25156 13.3891 5.3639 13.6391 5.58856C13.8891 5.8139 14.0141 6.11823 14.0141 6.50156C14.0141 6.7349 13.9474 6.95556 13.8141 7.16356C13.6807 7.37223 13.4474 7.6349 13.1141 7.95156C12.5641 8.4349 12.2267 8.8139 12.1021 9.08856C11.9767 9.3639 11.9141 9.8849 11.9141 10.6516ZM6.66406 16.8516C6.11406 16.8516 5.6434 16.6559 5.25206 16.2646C4.86006 15.8726 4.66406 15.4016 4.66406 14.8516V2.85156C4.66406 2.30156 4.86006 1.83056 5.25206 1.43856C5.6434 1.04723 6.11406 0.851562 6.66406 0.851562H18.6641C19.2141 0.851562 19.6851 1.04723 20.0771 1.43856C20.4684 1.83056 20.6641 2.30156 20.6641 2.85156V14.8516C20.6641 15.4016 20.4684 15.8726 20.0771 16.2646C19.6851 16.6559 19.2141 16.8516 18.6641 16.8516H6.66406ZM6.66406 14.8516H18.6641V2.85156H6.66406V14.8516ZM2.66406 20.8516C2.11406 20.8516 1.6434 20.6559 1.25206 20.2646C0.860063 19.8726 0.664062 19.4016 0.664062 18.8516V4.85156H2.66406V18.8516H16.6641V20.8516H2.66406Z" fill="#1C1B1F"/>
</svg>
