<svg width="30" height="31" viewBox="0 0 30 31" fill="none" xmlns="http://www.w3.org/2000/svg">
<mask id="mask0_121_7984" style="mask-type:alpha" maskUnits="userSpaceOnUse" x="0" y="0" width="30" height="31">
<rect y="0.0341797" width="30" height="30" fill="#D9D9D9"/>
</mask>
<g mask="url(#mask0_121_7984)">
<path d="M19.125 20.9092L20.875 19.1592L16.25 14.5342V8.78418H13.75V15.5342L19.125 20.9092ZM15 27.5342C13.2708 27.5342 11.6458 27.2058 10.125 26.5492C8.60417 25.8933 7.28125 25.0029 6.15625 23.8779C5.03125 22.7529 4.14083 21.43 3.485 19.9092C2.82833 18.3883 2.5 16.7633 2.5 15.0342C2.5 13.305 2.82833 11.68 3.485 10.1592C4.14083 8.63835 5.03125 7.31543 6.15625 6.19043C7.28125 5.06543 8.60417 4.1746 10.125 3.51793C11.6458 2.8621 13.2708 2.53418 15 2.53418C16.7292 2.53418 18.3542 2.8621 19.875 3.51793C21.3958 4.1746 22.7188 5.06543 23.8438 6.19043C24.9688 7.31543 25.8592 8.63835 26.515 10.1592C27.1717 11.68 27.5 13.305 27.5 15.0342C27.5 16.7633 27.1717 18.3883 26.515 19.9092C25.8592 21.43 24.9688 22.7529 23.8438 23.8779C22.7188 25.0029 21.3958 25.8933 19.875 26.5492C18.3542 27.2058 16.7292 27.5342 15 27.5342ZM15 25.0342C17.7708 25.0342 20.1304 24.0604 22.0788 22.1129C24.0263 20.1646 25 17.805 25 15.0342C25 12.2633 24.0263 9.90376 22.0788 7.95543C20.1304 6.00793 17.7708 5.03418 15 5.03418C12.2292 5.03418 9.87 6.00793 7.9225 7.95543C5.97417 9.90376 5 12.2633 5 15.0342C5 17.805 5.97417 20.1646 7.9225 22.1129C9.87 24.0604 12.2292 25.0342 15 25.0342Z" fill="#919094"/>
</g>
</svg>
