<svg width="19" height="19" viewBox="0 0 19 19" fill="none" xmlns="http://www.w3.org/2000/svg">
<path d="M2.66309 18.2588C1.81309 18.2588 1.20909 17.8798 0.851091 17.1218C0.492425 16.3631 0.579758 15.6588 1.11309 15.0088L6.66309 8.25879V2.25879H5.66309C5.37976 2.25879 5.14209 2.16279 4.95009 1.97079C4.75876 1.77946 4.66309 1.54212 4.66309 1.25879C4.66309 0.975456 4.75876 0.737789 4.95009 0.545789C5.14209 0.354456 5.37976 0.258789 5.66309 0.258789H13.6631C13.9464 0.258789 14.1838 0.354456 14.3751 0.545789C14.5671 0.737789 14.6631 0.975456 14.6631 1.25879C14.6631 1.54212 14.5671 1.77946 14.3751 1.97079C14.1838 2.16279 13.9464 2.25879 13.6631 2.25879H12.6631V8.25879L18.2131 15.0088C18.7464 15.6588 18.8338 16.3631 18.4751 17.1218C18.1171 17.8798 17.5131 18.2588 16.6631 18.2588H2.66309ZM2.66309 16.2588H16.6631L10.6631 8.95879V2.25879H8.66309V8.95879L2.66309 16.2588Z" fill="#1C1B1F"/>
</svg>
