<svg width="40" height="41" viewBox="0 0 40 41" fill="none" xmlns="http://www.w3.org/2000/svg">
<mask id="mask0_121_8357" style="mask-type:alpha" maskUnits="userSpaceOnUse" x="0" y="0" width="40" height="41">
<rect y="0.0341797" width="40" height="40" fill="#D9D9D9"/>
</mask>
<g mask="url(#mask0_121_8357)">
<path d="M8.33367 35.0342C6.917 35.0342 5.91033 34.4025 5.31367 33.1392C4.71589 31.8747 4.86145 30.7008 5.75033 29.6175L15.0003 18.3675V8.36751H13.3337C12.8614 8.36751 12.4653 8.20751 12.1453 7.88751C11.8264 7.56862 11.667 7.17307 11.667 6.70085C11.667 6.22862 11.8264 5.83251 12.1453 5.51251C12.4653 5.19362 12.8614 5.03418 13.3337 5.03418H26.667C27.1392 5.03418 27.5348 5.19362 27.8537 5.51251C28.1737 5.83251 28.3337 6.22862 28.3337 6.70085C28.3337 7.17307 28.1737 7.56862 27.8537 7.88751C27.5348 8.20751 27.1392 8.36751 26.667 8.36751H25.0003V18.3675L34.2503 29.6175C35.1392 30.7008 35.2848 31.8747 34.687 33.1392C34.0903 34.4025 33.0837 35.0342 31.667 35.0342H8.33367Z" fill="#919094"/>
</g>
</svg>
