<svg width="18" height="18" viewBox="0 0 18 18" fill="none" xmlns="http://www.w3.org/2000/svg">
<path fill-rule="evenodd" clip-rule="evenodd" d="M11.76 10.3042L17.49 16.0342L16 17.5242L10.27 11.7942C9.2 12.5642 7.91 13.0342 6.5 13.0342C2.91 13.0342 0 10.1242 0 6.53418C0 2.94418 2.91 0.0341797 6.5 0.0341797C10.09 0.0341797 13 2.94418 13 6.53418C13 7.94418 12.53 9.23418 11.76 10.3042ZM6.5 2.03418C4.01 2.03418 2 4.04418 2 6.53418C2 9.02418 4.01 11.0342 6.5 11.0342C8.99 11.0342 11 9.02418 11 6.53418C11 4.04418 8.99 2.03418 6.5 2.03418Z" fill="#79747E"/>
</svg>
