<svg width="4" height="17" viewBox="0 0 4 17" fill="none" xmlns="http://www.w3.org/2000/svg">
<path fill-rule="evenodd" clip-rule="evenodd" d="M2 4.36735C3.1 4.36735 4 3.42985 4 2.28402C4 1.13818 3.1 0.200684 2 0.200684C0.9 0.200684 0 1.13818 0 2.28402C0 3.42985 0.9 4.36735 2 4.36735ZM2 6.45068C0.9 6.45068 0 7.38818 0 8.53402C0 9.67985 0.9 10.6174 2 10.6174C3.1 10.6174 4 9.67985 4 8.53402C4 7.38818 3.1 6.45068 2 6.45068ZM0 14.784C0 13.6382 0.9 12.7007 2 12.7007C3.1 12.7007 4 13.6382 4 14.784C4 15.9299 3.1 16.8674 2 16.8674C0.9 16.8674 0 15.9299 0 14.784Z" fill="#605D62"/>
</svg>
