<svg width="18" height="18" viewBox="0 0 18 18" fill="none" xmlns="http://www.w3.org/2000/svg">
<path fill-rule="evenodd" clip-rule="evenodd" d="M11.4824 15.7723C11.4074 16.2823 10.9424 16.6873 10.3874 16.6873H7.61243C7.05743 16.6873 6.59243 16.2823 6.52493 15.7348L6.32243 14.3173C6.11993 14.2123 5.92493 14.0998 5.72993 13.9723L4.37993 14.5123C3.85493 14.7073 3.27743 14.4898 3.02243 14.0248L1.64993 11.6473C1.38743 11.1523 1.49993 10.5673 1.91993 10.2373L3.06743 9.34482C3.05993 9.23232 3.05243 9.11982 3.05243 8.99982C3.05243 8.88732 3.05993 8.76732 3.06743 8.65482L1.92743 7.76232C1.48493 7.42482 1.37243 6.81732 1.64993 6.35232L3.03743 3.95982C3.29243 3.49482 3.86993 3.28482 4.37993 3.48732L5.73743 4.03482C5.93243 3.90732 6.12743 3.79482 6.32243 3.68982L6.52493 2.25732C6.59243 1.73232 7.05743 1.31982 7.60493 1.31982H10.3799C10.9349 1.31982 11.3999 1.72482 11.4674 2.27232L11.6699 3.68982C11.8724 3.79482 12.0674 3.90732 12.2624 4.03482L13.6124 3.49482C14.1449 3.29982 14.7224 3.51732 14.9774 3.98232L16.3574 6.36732C16.6274 6.86232 16.5074 7.44732 16.0874 7.77732L14.9474 8.66982C14.9549 8.78232 14.9624 8.89482 14.9624 9.01482C14.9624 9.13482 14.9549 9.24732 14.9474 9.35982L16.0874 10.2523C16.5074 10.5898 16.6274 11.1748 16.3649 11.6473L14.9699 14.0623C14.7149 14.5273 14.1374 14.7373 13.6199 14.5348L12.2699 13.9948C12.0749 14.1223 11.8799 14.2348 11.6849 14.3398L11.4824 15.7723ZM7.96493 15.1873H10.0349L10.3124 13.2748L10.7099 13.1098C11.0399 12.9748 11.3699 12.7798 11.7149 12.5248L12.0524 12.2698L13.8374 12.9898L14.8724 11.1898L13.3499 10.0048L13.4024 9.58482L13.4048 9.56464C13.4265 9.37685 13.4474 9.19532 13.4474 8.99982C13.4474 8.79732 13.4249 8.60232 13.4024 8.41482L13.3499 7.99482L14.8724 6.80982L13.8299 5.00982L12.0374 5.72982L11.6999 5.46732C11.3849 5.22732 11.0474 5.03232 10.7024 4.88982L10.3124 4.72482L10.0349 2.81232H7.96493L7.68743 4.72482L7.28993 4.88232C6.95993 5.02482 6.62993 5.21232 6.28493 5.47482L5.94743 5.72232L4.16243 5.00982L3.11993 6.80232L4.64243 7.98732L4.58993 8.40732C4.56743 8.60232 4.54493 8.80482 4.54493 8.99982C4.54493 9.19482 4.55993 9.39732 4.58993 9.58482L4.64243 10.0048L3.11993 11.1898L4.15493 12.9898L5.94743 12.2698L6.28493 12.5323C6.60743 12.7798 6.92993 12.9673 7.28243 13.1098L7.67993 13.2748L7.96493 15.1873ZM11.6249 8.99982C11.6249 10.4496 10.4497 11.6248 8.99993 11.6248C7.55018 11.6248 6.37493 10.4496 6.37493 8.99982C6.37493 7.55008 7.55018 6.37482 8.99993 6.37482C10.4497 6.37482 11.6249 7.55008 11.6249 8.99982Z" fill="#1F1F1F"/>
</svg>
