<svg width="19" height="19" viewBox="0 0 19 19" fill="none" xmlns="http://www.w3.org/2000/svg">
<path d="M8.66406 14.8145H10.6641L10.9641 13.3145C11.1641 13.2311 11.3517 13.1438 11.5271 13.0525C11.7017 12.9605 11.8807 12.8478 12.0641 12.7145L13.5141 13.1645L14.5141 11.4645L13.3641 10.4645C13.3974 10.2311 13.4141 10.0145 13.4141 9.81445C13.4141 9.61445 13.3974 9.39779 13.3641 9.16445L14.5141 8.16445L13.5141 6.46445L12.0641 6.91445C11.8807 6.78112 11.7017 6.66845 11.5271 6.57645C11.3517 6.48512 11.1641 6.39779 10.9641 6.31445L10.6641 4.81445H8.66406L8.36406 6.31445C8.16406 6.39779 7.9764 6.48512 7.80106 6.57645C7.6264 6.66845 7.4474 6.78112 7.26406 6.91445L5.81406 6.46445L4.81406 8.16445L5.96406 9.16445C5.93073 9.39779 5.91406 9.61445 5.91406 9.81445C5.91406 10.0145 5.93073 10.2311 5.96406 10.4645L4.81406 11.4645L5.81406 13.1645L7.26406 12.7145C7.4474 12.8478 7.6264 12.9605 7.80106 13.0525C7.9764 13.1438 8.16406 13.2311 8.36406 13.3145L8.66406 14.8145ZM9.66406 11.8145C9.11406 11.8145 8.6434 11.6185 8.25206 11.2265C7.86006 10.8351 7.66406 10.3645 7.66406 9.81445C7.66406 9.26445 7.86006 8.79345 8.25206 8.40145C8.6434 8.01012 9.11406 7.81445 9.66406 7.81445C10.2141 7.81445 10.6851 8.01012 11.0771 8.40145C11.4684 8.79345 11.6641 9.26445 11.6641 9.81445C11.6641 10.3645 11.4684 10.8351 11.0771 11.2265C10.6851 11.6185 10.2141 11.8145 9.66406 11.8145ZM2.66406 18.8145C2.11406 18.8145 1.64306 18.6188 1.25106 18.2275C0.859729 17.8355 0.664062 17.3645 0.664062 16.8145V2.81445C0.664062 2.26445 0.859729 1.79345 1.25106 1.40145C1.64306 1.01012 2.11406 0.814453 2.66406 0.814453H16.6641C17.2141 0.814453 17.6851 1.01012 18.0771 1.40145C18.4684 1.79345 18.6641 2.26445 18.6641 2.81445V16.8145C18.6641 17.3645 18.4684 17.8355 18.0771 18.2275C17.6851 18.6188 17.2141 18.8145 16.6641 18.8145H2.66406ZM2.66406 16.8145H16.6641V2.81445H2.66406V16.8145Z" fill="#1C1B1F"/>
</svg>
