<svg width="24" height="24" viewBox="0 0 24 24" fill="none" xmlns="http://www.w3.org/2000/svg">
<path d="M8.71642 23.8806L8.23881 20.0597C7.9801 19.9602 7.73652 19.8408 7.50806 19.7015C7.27881 19.5622 7.05473 19.4129 6.83582 19.2537L3.28358 20.7463L0 15.0746L3.07463 12.7463C3.05473 12.607 3.04478 12.4724 3.04478 12.3427V11.5367C3.04478 11.4078 3.05473 11.2736 3.07463 11.1343L0 8.80597L3.28358 3.13433L6.83582 4.62687C7.05473 4.46766 7.28358 4.31841 7.52239 4.1791C7.76119 4.0398 8 3.9204 8.23881 3.8209L8.71642 0H15.2836L15.7612 3.8209C16.0199 3.9204 16.2639 4.0398 16.4931 4.1791C16.7216 4.31841 16.9453 4.46766 17.1642 4.62687L20.7164 3.13433L24 8.80597L20.9254 11.1343C20.9453 11.2736 20.9552 11.4078 20.9552 11.5367V12.3427C20.9552 12.4724 20.9353 12.607 20.8955 12.7463L23.9701 15.0746L20.6866 20.7463L17.1642 19.2537C16.9453 19.4129 16.7164 19.5622 16.4776 19.7015C16.2388 19.8408 16 19.9602 15.7612 20.0597L15.2836 23.8806H8.71642ZM12.0597 16.1194C13.2139 16.1194 14.199 15.7114 15.0149 14.8955C15.8308 14.0796 16.2388 13.0945 16.2388 11.9403C16.2388 10.7861 15.8308 9.80099 15.0149 8.98507C14.199 8.16915 13.2139 7.76119 12.0597 7.76119C10.8856 7.76119 9.89532 8.16915 9.08896 8.98507C8.28338 9.80099 7.8806 10.7861 7.8806 11.9403C7.8806 13.0945 8.28338 14.0796 9.08896 14.8955C9.89532 15.7114 10.8856 16.1194 12.0597 16.1194Z" fill="black"/>
</svg>
