<svg width="19" height="19" viewBox="0 0 19 19" fill="none" xmlns="http://www.w3.org/2000/svg">
<path d="M5.66406 6.77734C5.9474 6.77734 6.18506 6.68134 6.37706 6.48934C6.5684 6.29801 6.66406 6.06068 6.66406 5.77734C6.66406 5.49401 6.5684 5.25634 6.37706 5.06434C6.18506 4.87301 5.9474 4.77734 5.66406 4.77734C5.38073 4.77734 5.14306 4.87301 4.95106 5.06434C4.75973 5.25634 4.66406 5.49401 4.66406 5.77734C4.66406 6.06068 4.75973 6.29801 4.95106 6.48934C5.14306 6.68134 5.38073 6.77734 5.66406 6.77734ZM5.66406 10.7773C5.9474 10.7773 6.18506 10.6813 6.37706 10.4893C6.5684 10.298 6.66406 10.0607 6.66406 9.77734C6.66406 9.49401 6.5684 9.25634 6.37706 9.06434C6.18506 8.87301 5.9474 8.77734 5.66406 8.77734C5.38073 8.77734 5.14306 8.87301 4.95106 9.06434C4.75973 9.25634 4.66406 9.49401 4.66406 9.77734C4.66406 10.0607 4.75973 10.298 4.95106 10.4893C5.14306 10.6813 5.38073 10.7773 5.66406 10.7773ZM5.66406 14.7773C5.9474 14.7773 6.18506 14.6813 6.37706 14.4893C6.5684 14.298 6.66406 14.0607 6.66406 13.7773C6.66406 13.494 6.5684 13.2563 6.37706 13.0643C6.18506 12.873 5.9474 12.7773 5.66406 12.7773C5.38073 12.7773 5.14306 12.873 4.95106 13.0643C4.75973 13.2563 4.66406 13.494 4.66406 13.7773C4.66406 14.0607 4.75973 14.298 4.95106 14.4893C5.14306 14.6813 5.38073 14.7773 5.66406 14.7773ZM2.66406 18.7773C2.11406 18.7773 1.64306 18.5817 1.25106 18.1903C0.859729 17.7983 0.664062 17.3273 0.664062 16.7773V2.77734C0.664062 2.22734 0.859729 1.75634 1.25106 1.36434C1.64306 0.97301 2.11406 0.777344 2.66406 0.777344H13.6641L18.6641 5.77734V16.7773C18.6641 17.3273 18.4684 17.7983 18.0771 18.1903C17.6851 18.5817 17.2141 18.7773 16.6641 18.7773H2.66406ZM2.66406 16.7773H16.6641V6.77734H12.6641V2.77734H2.66406V16.7773Z" fill="#1C1B1F"/>
</svg>
